<?xml version="1.0" encoding="UTF-8" standalone="no"?>
<svg
   xmlns:dc="http://purl.org/dc/elements/1.1/"
   xmlns:cc="http://creativecommons.org/ns#"
   xmlns:rdf="http://www.w3.org/1999/02/22-rdf-syntax-ns#"
   xmlns:svg="http://www.w3.org/2000/svg"
   xmlns="http://www.w3.org/2000/svg"
   xmlns:sodipodi="http://sodipodi.sourceforge.net/DTD/sodipodi-0.dtd"
   xmlns:inkscape="http://www.inkscape.org/namespaces/inkscape"
   width="105mm"
   height="105mm"
   viewBox="0 0 105 105"
   version="1.1"
   id="svg8"
   sodipodi:docname="vt_logo2.svg"
   inkscape:version="1.0.1 (3bc2e813f5, 2020-09-07)">
  <defs
     id="defs2" />
  <sodipodi:namedview
     id="base"
     pagecolor="#ffffff"
     bordercolor="#666666"
     borderopacity="1.0"
     inkscape:pageopacity="0.0"
     inkscape:pageshadow="2"
     inkscape:zoom="0.98994949"
     inkscape:cx="217.43077"
     inkscape:cy="245.23363"
     inkscape:document-units="mm"
     inkscape:current-layer="layer1"
     inkscape:document-rotation="0"
     showgrid="false"
     inkscape:window-width="2560"
     inkscape:window-height="1377"
     inkscape:window-x="-8"
     inkscape:window-y="-8"
     inkscape:window-maximized="1"
     inkscape:snap-grids="true"
     inkscape:snap-to-guides="false"
     inkscape:snap-page="false" />
  <metadata
     id="metadata5">
    <rdf:RDF>
      <cc:Work
         rdf:about="">
        <dc:format>image/svg+xml</dc:format>
        <dc:type
           rdf:resource="http://purl.org/dc/dcmitype/StillImage" />
        <dc:title></dc:title>
      </cc:Work>
    </rdf:RDF>
  </metadata>
  <g
     inkscape:label="Слой 1"
     inkscape:groupmode="layer"
     id="layer1">
    <path
       style="fill:none;stroke:#000000;stroke-width:0.264583px;stroke-linecap:butt;stroke-linejoin:miter;stroke-opacity:1"
       d="m 21.182877,51.135923 -3.123052,1.85696 c 0,0 -4.027228,1.98265 -5.870093,3.24997 -1.492038,1.02606 -2.9079683,2.18592 -4.1577403,3.49628 -1.039174,1.08955 -1.963453,2.30102 -2.740326,3.59078 -0.698078,1.15894 -1.256134,2.40751 -1.7008929,3.68526 -0.429854,1.23493 -0.740526,2.51787 -0.922994,3.81268 -0.213257,1.5133 -0.201874,3.13136 -0.194727,4.5806 0.01085,2.19892 0.30707,4.40055 0.973602,6.48095 0.384116,1.19891 1.0700219,2.28371 1.7138329,3.36558 0.862034,1.44857 1.784277,2.87368 2.866263,4.16626 1.320933,1.57804 2.7612693,3.08333 4.3911083,4.3398 1.063928,0.82019 2.248651,1.48977 3.469091,2.05119 1.178062,0.54193 2.438576,0.8878 3.682402,1.25442 1.211563,0.35712 2.44014,0.6589 3.676178,0.91895 2.462738,0.51813 4.949354,0.92465 7.441406,1.27567 3.051715,0.429846 6.108982,0.927187 9.189548,1.015807 2.505564,0.0721 5.046994,0.0734 7.509411,-0.395181 2.318939,-0.441256 4.476659,-1.499446 6.714319,-2.251156 1.43091,-0.48068 2.84413,-1.01726 4.29187,-1.44459 1.18822,-0.35073 2.37062,-0.77869 3.60175,-0.91726 1.52438,-0.17158 3.06708,0.0756 4.60056,0.11595 1.2499,0.0329 2.502,0.18529 3.7496,0.10271 1.11215,-0.0736 2.22444,-0.24362 3.30126,-0.5313 4.44521,-1.18756 8.85213,-2.71926 12.90605,-4.8955 2.46587,-1.32373 4.86573,-2.89388 6.81979,-4.89748 1.25045,-1.28215 2.19544,-2.85335 3.02381,-4.44122 2.03145,-3.89399 3.53688,-8.07516 4.690097,-12.31309 0.74441,-2.73562 1.42722,-5.55126 1.41743,-8.38634 -0.005,-1.40724 -0.35341,-2.80246 -0.73231,-4.15774 -0.32759,-1.17172 -1.32291,-3.40179 -1.32291,-3.40179 0,0 -2.810717,-5.41404 -4.512097,-7.9375 -0.62897,-0.93288 -1.2617,-1.89046 -2.0948,-2.64665 -0.63637,-0.57762 -1.3517,-1.12477 -2.16673,-1.39743 -0.84559,-0.28289 -1.7861,-0.32717 -2.66786,-0.19472 -1.28773,0.19342 -2.46188,0.66851 -3.64069,1.41643 -4.80566,3.04903 -12.21594,8.78332 -14.87245,9.43695 -0.52085,0.12816 -1.09389,0.0638 -1.60639,-0.0945 -0.17548,-0.0542 -0.32846,-0.16949 -0.47247,-0.28348 -0.32747,-0.25921 -0.66708,-0.53495 -0.87408,-0.89769 -0.28308,-0.49608 -0.38063,-1.08658 -0.44884,-1.65365 -0.14674,-1.22003 -0.0265,-2.46242 0.0945,-3.68527 0.2361,-2.38592 0.95344,-4.7053 1.22843,-7.08705 0.10856,-0.9403 0.23021,-1.8905 0.16536,-2.834824 -0.0528,-0.768805 -0.19916,-1.538815 -0.44885,-2.267857 -1.11874,-3.266447 -3.0199,-6.21176 -4.64068,-9.260417 -1.93877,-3.646764 -3.80671,-7.34762 -6.07808,-10.797047 -1.10992,-1.685581 -2.21052,-3.4225237 -3.67331,-4.8129717 -1.00316,-0.953547 -2.1296,-1.858788 -3.42407,-2.348598 -0.91203,-0.345097 -1.93105,-0.428262 -2.903563,-0.356783 -1.191322,0.08756 -2.335809,0.534157 -3.45473,0.952404 -2.197916,0.821569 -4.250687,1.989921 -6.34945,3.039209 -3.264177,1.6319417 -6.482938,3.3534637 -9.706959,5.0633677 -3.469027,1.839846 -7.012811,3.552314 -10.369044,5.590666 -2.262457,1.374065 -4.614173,2.677931 -6.567045,4.464844 -1.0014903,0.916381 -1.9124823,1.969145 -2.5790163,3.151713 -0.69009,1.224362 -1.159784,2.590794 -1.408898,3.973989 -0.291338,1.617641 -0.360612,3.31133 -0.07729,4.930395 0.27918,1.59542 0.856193,3.17465 1.721445,4.54382 0.513055,0.81186 1.177707,1.57435 1.9953483,2.07838 0.894053,0.55113 1.93724,0.97324 2.948394,1.3587 0.836222,0.31877 1.708917,0.53236 2.567551,0.78461 0.818697,0.24051 1.657279,0.41615 2.463765,0.69488 0.689843,0.23841 1.403136,0.45113 2.024704,0.83373 0.453628,0.27922 0.868559,0.63536 1.208851,1.04517 0.279544,0.33665 0.547257,0.71151 0.661458,1.13393 0.131525,0.4865 0.200422,1.0495 0,1.5119 -0.237363,0.54763 -1.306713,1.22419 -1.306713,1.22419 z"
       id="path74"
       sodipodi:nodetypes="ccaaaaasaaaaaaaaaaaaaaaaaaaaaacaaaassaaaaaaaaaaaaaaaaaaaaaasaaaaaaacc" />
    <path
       style="fill:#000000;stroke:#000000;stroke-width:1.42857;stroke-opacity:1"
       d="M 137.66113,377.33814 C 123.93238,375.7852 96.697083,371.50149 87.303983,369.41771 68.357987,365.2147 56.413763,360.54514 47.535435,353.87031 32.733639,342.74214 16.02964,319.09197 12.159718,303.78399 c -1.447353,-5.7252 -1.61445,-8.06623 -1.578665,-22.11721 0.03499,-13.73839 0.230771,-16.40568 1.557053,-21.21292 6.762599,-24.51167 20.89244,-40.92676 46.951591,-54.54517 11.021694,-5.75988 22.604778,-12.75578 24.869636,-15.02063 2.764271,-2.76428 2.696128,-7.57297 -0.163265,-11.52025 -3.756605,-5.18584 -6.467654,-6.55488 -21.549017,-10.88197 C 42.389453,162.78839 36.077072,158.80489 31.246395,148.92253 27.518447,141.29607 26.293674,135.77011 26.392789,127.02392 26.58883,109.72477 33.045023,97.140465 47.19371,86.479109 59.104433,77.50411 95.018068,57.680385 144.47048,32.783957 171.05501,19.400186 178.26949,17.15885 187.32992,19.468732 c 13.84212,3.528939 25.79471,18.604893 48.17953,60.769475 1.87708,3.535715 6.39752,11.892858 10.0454,18.571429 11.71198,21.442314 13.92808,28.623024 12.4886,40.466144 -0.44633,3.67219 -1.59386,10.69457 -2.55005,15.60528 -3.51637,18.05896 -3.68229,29.9219 -0.479,34.24863 2.30862,3.11829 5.79131,5.03709 9.14249,5.03709 5.19064,0 12.80044,-4.49889 45.28995,-26.77531 18.73314,-12.84437 24.25289,-15.29883 32.49246,-14.44843 10.7181,1.1062 16.57334,7.90995 33.47225,38.89457 7.05655,12.93838 11.16639,26.14715 11.17027,35.9006 0.009,22.94898 -16.64149,71.08747 -31.16579,90.10313 -10.51326,13.76429 -36.73555,28.26888 -68.18258,37.7145 -13.51522,4.05952 -16.00697,4.422 -28.85804,4.19811 -25.96453,-0.45235 -26.44332,-0.42259 -35,2.17612 -4.32143,1.31244 -14.82242,4.90537 -23.33554,7.98429 -8.51312,3.07892 -17.83454,6.11788 -20.71429,6.75323 -7.51325,1.65762 -29.77139,2.01585 -41.66445,0.67055 z"
       id="path925"
       transform="scale(0.26458333)" />
  </g>
</svg>
